<svg width="18" height="21" viewBox="0 0 18 21" fill="none" xmlns="http://www.w3.org/2000/svg">
<path d="M1.28289 0.680921V2.28454L5.33203 1.28228C6.85547 0.921464 8.45909 1.08183 9.86225 1.80345C11.7064 2.72553 13.9114 2.72553 15.7556 1.80345L16.1565 1.603C16.9583 1.2021 17.9605 1.80345 17.9605 2.72553V13.9108C17.9605 14.472 17.5997 14.913 17.1186 15.1135L15.7155 15.6347C13.8713 16.3563 11.8267 16.236 10.0226 15.354C8.49918 14.5923 6.77529 14.3919 5.13158 14.7928L1.28289 15.7549V19.9243C1.28289 20.2852 0.962171 20.5658 0.641447 20.5658C0.280633 20.5658 0 20.2852 0 19.9243V16.0757V14.7527V2.60526V0.680921C0 0.360197 0.280633 0.0394738 0.641447 0.0394738C0.962171 0.0394738 1.28289 0.360197 1.28289 0.680921ZM1.28289 3.60752V14.4319L4.81086 13.55C6.77529 13.0689 8.8199 13.3094 10.624 14.1914C12.0672 14.913 13.751 14.9932 15.2745 14.4319L16.6776 13.9108V2.76563L16.3168 2.92599C14.1118 4.04852 11.506 4.04852 9.30099 2.92599C8.13836 2.36472 6.85547 2.24445 5.61266 2.52508L1.28289 3.60752Z" fill="#E1E1E1"/>
</svg>
