<svg width="22" height="22" viewBox="0 0 22 22" fill="none" xmlns="http://www.w3.org/2000/svg">
<path d="M16.0812 7.61626C17.3266 7.61626 18.3362 6.60666 18.3362 5.36126C18.3362 4.11586 17.3266 3.10626 16.0812 3.10626C14.8358 3.10626 13.8262 4.11586 13.8262 5.36126C13.8262 6.60666 14.8358 7.61626 16.0812 7.61626Z" stroke="#E1E1E1" stroke-width="1.5" stroke-miterlimit="10" stroke-linecap="round" stroke-linejoin="round"/>
<path d="M5.92542 7.61626C7.17082 7.61626 8.18041 6.60666 8.18041 5.36126C8.18041 4.11586 7.17082 3.10626 5.92542 3.10626C4.68001 3.10626 3.67041 4.11586 3.67041 5.36126C3.67041 6.60666 4.68001 7.61626 5.92542 7.61626Z" stroke="#E1E1E1" stroke-width="1.5" stroke-miterlimit="10" stroke-linecap="round" stroke-linejoin="round"/>
<path d="M16.0812 18.8928C17.3266 18.8928 18.3362 17.8832 18.3362 16.6378C18.3362 15.3923 17.3266 14.3828 16.0812 14.3828C14.8358 14.3828 13.8262 15.3923 13.8262 16.6378C13.8262 17.8832 14.8358 18.8928 16.0812 18.8928Z" stroke="#E1E1E1" stroke-width="1.5" stroke-miterlimit="10" stroke-linecap="round" stroke-linejoin="round"/>
<path d="M5.92542 18.8928C7.17082 18.8928 8.18041 17.8832 8.18041 16.6378C8.18041 15.3923 7.17082 14.3828 5.92542 14.3828C4.68001 14.3828 3.67041 15.3923 3.67041 16.6378C3.67041 17.8832 4.68001 18.8928 5.92542 18.8928Z" stroke="#E1E1E1" stroke-width="1.5" stroke-miterlimit="10" stroke-linecap="round" stroke-linejoin="round"/>
</svg>
