<svg width="32" height="32" viewBox="0 0 32 32" fill="none" xmlns="http://www.w3.org/2000/svg">
<path d="M25.7306 0.725433H6.33132C3.24992 0.725433 0.751953 3.2234 0.751953 6.3048V25.7041C0.751953 28.7855 3.24992 31.2835 6.33132 31.2835H25.7306C28.812 31.2835 31.31 28.7855 31.31 25.7041V6.3048C31.31 3.2234 28.812 0.725433 25.7306 0.725433Z" fill="url(#paint0_linear_575_2175)"/>
<path d="M11.04 8.3549C10.0964 8.35567 9.17425 8.63613 8.39004 9.16083C7.60582 9.68552 6.99474 10.4309 6.63401 11.3028C6.27329 12.1747 6.17911 13.1339 6.36338 14.0593C6.54765 14.9847 7.0021 15.8347 7.66929 16.5019C8.33649 17.1691 9.18649 17.6235 10.1119 17.8078C11.0373 17.9921 11.9965 17.8979 12.8684 17.5372C13.7403 17.1765 14.4857 16.5654 15.0104 15.7812C15.5351 14.9969 15.8155 14.0748 15.8163 13.1312C15.8156 11.8647 15.3122 10.6502 14.4166 9.75462C13.521 8.85903 12.3065 8.35559 11.04 8.3549V8.3549ZM11.04 15.9447C10.483 15.9447 9.9385 15.7795 9.47539 15.4701C9.01228 15.1606 8.65134 14.7208 8.43821 14.2062C8.22508 13.6916 8.16934 13.1253 8.27803 12.5791C8.38673 12.0328 8.65498 11.531 9.04886 11.1372C9.44273 10.7434 9.94455 10.4752 10.4908 10.3666C11.0371 10.258 11.6034 10.3138 12.1179 10.527C12.6325 10.7402 13.0723 11.1012 13.3817 11.5644C13.691 12.0276 13.8561 12.5721 13.856 13.129C13.8535 13.8751 13.556 14.5899 13.0284 15.1174C12.5008 15.6449 11.786 15.9423 11.04 15.9447ZM25.109 12.4377C25.1105 13.1207 24.9379 13.7928 24.6074 14.3905C24.0975 13.9755 23.5171 13.6557 22.894 13.4462C23.0602 13.1359 23.1476 12.7896 23.1487 12.4377C23.1487 11.8742 22.9249 11.3337 22.5264 10.9353C22.128 10.5368 21.5875 10.313 21.024 10.313C20.4605 10.313 19.9201 10.5368 19.5216 10.9353C19.1232 11.3337 18.8993 11.8742 18.8993 12.4377C18.8966 12.7901 18.9843 13.1373 19.1541 13.4462C18.5308 13.6558 17.9503 13.9756 17.4402 14.3905C17.1001 13.7689 16.9278 13.0694 16.9403 12.361C16.9528 11.6525 17.1496 10.9595 17.5115 10.3503C17.8734 9.74108 18.3877 9.23667 19.0039 8.88677C19.6201 8.53687 20.3168 8.35356 21.0253 8.3549C22.1079 8.35605 23.1458 8.78654 23.9113 9.55194C24.6769 10.3173 25.1076 11.3551 25.109 12.4377V12.4377ZM21.0253 14.09C20.0815 14.0892 19.1586 14.3683 18.3734 14.892C17.5881 15.4158 16.9758 16.1605 16.6139 17.0322C16.2519 17.9039 16.1566 18.8634 16.3399 19.7893C16.5232 20.7151 16.9769 21.5659 17.6437 22.2339C18.3105 22.9019 19.1604 23.3572 20.086 23.5422C21.0115 23.7272 21.9711 23.6336 22.8435 23.2733C23.7159 22.9129 24.4618 22.302 24.9869 21.5177C25.5121 20.7334 25.7929 19.811 25.7938 18.8672C25.7925 17.6021 25.29 16.389 24.3963 15.4937C23.5026 14.5983 22.2904 14.0936 21.0253 14.09V14.09ZM21.0253 21.6745C20.4691 21.6738 19.9255 21.5082 19.4634 21.1986C19.0013 20.8889 18.6415 20.4492 18.4293 19.935C18.2171 19.4208 18.1622 18.8553 18.2715 18.3099C18.3808 17.7645 18.6494 17.2637 19.0433 16.871C19.4372 16.4782 19.9387 16.2111 20.4844 16.1034C21.0302 15.9958 21.5956 16.0523 22.1091 16.266C22.6227 16.4797 23.0613 16.8409 23.3696 17.3039C23.6779 17.7669 23.8419 18.3109 23.841 18.8672C23.8388 19.6125 23.5412 20.3265 23.0134 20.8528C22.4856 21.379 21.7707 21.6745 21.0253 21.6745ZM15.1236 19.5511C15.1236 20.6345 14.6932 21.6736 13.9272 22.4396C13.1611 23.2057 12.1221 23.6361 11.0387 23.6361C9.95526 23.6361 8.91623 23.2057 8.15015 22.4396C7.38407 21.6736 6.95369 20.6345 6.95369 19.5511H8.91395C8.91395 20.1146 9.1378 20.6551 9.53626 21.0535C9.93472 21.452 10.4751 21.6758 11.0387 21.6758C11.6022 21.6758 12.1426 21.452 12.541 21.0535C12.9395 20.6551 13.1634 20.1146 13.1634 19.5511H15.1236Z" fill="#252525"/>
<defs>
<linearGradient id="paint0_linear_575_2175" x1="29.7519" y1="2.28352" x2="2.73228" y2="29.3032" gradientUnits="userSpaceOnUse">
<stop stop-color="#F1D961"/>
<stop offset="1" stop-color="#CDA146"/>
</linearGradient>
</defs>
</svg>
