<svg width="33" height="33" viewBox="0 0 33 33" fill="none" xmlns="http://www.w3.org/2000/svg">
<rect x="0.432161" y="0.432161" width="31.9799" height="31.9799" rx="6.48241" stroke="#E0D026" stroke-width="0.864322"/>
<path d="M19.2731 10.9743C19.9367 10.3107 21.0033 10.3107 21.6669 10.9743L21.975 11.2825C22.6386 11.9461 22.6386 13.0127 21.975 13.6763L17.2821 18.3692C17.0925 18.5588 16.8318 18.7247 16.5474 18.7958L14.1773 19.4831C13.9877 19.5305 13.7743 19.4831 13.6321 19.3172C13.4662 19.175 13.4188 18.9617 13.4662 18.7721L14.1536 16.4019C14.2247 16.1175 14.3906 15.8568 14.5802 15.6672L19.2731 10.9743ZM20.861 11.7802C20.6477 11.5669 20.2922 11.5669 20.0789 11.7802L19.3679 12.4675L20.4818 13.5815L21.1692 12.8704C21.3825 12.6571 21.3825 12.3016 21.1692 12.0883L20.861 11.7802ZM15.2438 16.7101L14.8409 18.1084L16.2393 17.7055C16.3341 17.6818 16.4052 17.6344 16.4763 17.5633L19.676 14.3636L18.5857 13.2734L15.386 16.473C15.3149 16.5442 15.2675 16.6153 15.2438 16.7101ZM15.1727 11.8987C15.4808 11.8987 15.7416 12.1594 15.7416 12.4675C15.7416 12.7993 15.4808 13.0364 15.1727 13.0364H12.5182C11.973 13.0364 11.5701 13.463 11.5701 13.9844V20.4312C11.5701 20.9763 11.973 21.3792 12.5182 21.3792H18.9649C19.4864 21.3792 19.913 20.9763 19.913 20.4312V17.7766C19.913 17.4685 20.15 17.2078 20.4818 17.2078C20.7899 17.2078 21.0507 17.4685 21.0507 17.7766V20.4312C21.0507 21.5925 20.1026 22.5169 18.9649 22.5169H12.5182C11.3568 22.5169 10.4325 21.5925 10.4325 20.4312V13.9844C10.4325 12.8467 11.3568 11.8987 12.5182 11.8987H15.1727Z" fill="#E0D026"/>
</svg>
