<svg width="20" height="20" viewBox="0 0 20 20" fill="none" xmlns="http://www.w3.org/2000/svg">
<g clip-path="url(#clip0_646_950)">
<path fill-rule="evenodd" clip-rule="evenodd" d="M10.3543 2.45667L12.6226 1.72251C12.8824 1.63849 13.1636 1.64972 13.4159 1.75416C13.6681 1.8586 13.8749 2.04945 13.9993 2.29251L15.0835 4.41584C15.1935 4.63084 15.3685 4.80667 15.5843 4.91667L17.681 5.98751C17.9317 6.11551 18.1286 6.32871 18.2362 6.58882C18.3439 6.84893 18.3553 7.1389 18.2685 7.40667L17.5435 9.64667C17.4693 9.87668 17.4693 10.1242 17.5435 10.3542L18.2776 12.6225C18.3616 12.8823 18.3504 13.1635 18.246 13.4157C18.1415 13.668 17.9507 13.8748 17.7076 13.9992L15.5843 15.0833C15.3688 15.1934 15.1935 15.3687 15.0835 15.5842L13.9985 17.7075C13.8744 17.9508 13.6676 18.1419 13.4152 18.2463C13.1629 18.3508 12.8815 18.3619 12.6218 18.2775L10.3535 17.5433C10.1235 17.4692 9.87595 17.4692 9.64595 17.5433L7.37762 18.2775C7.11785 18.3615 6.83665 18.3503 6.58439 18.2459C6.33213 18.1414 6.12531 17.9506 6.00095 17.7075L4.91679 15.5842C4.80669 15.3687 4.63143 15.1934 4.41595 15.0833L2.29262 13.9983C2.04933 13.8742 1.85827 13.6674 1.75379 13.4151C1.64931 13.1628 1.63826 12.8814 1.72262 12.6217L2.45679 10.3533C2.53096 10.1233 2.53096 9.87584 2.45679 9.64584L1.72262 7.37834C1.63862 7.11835 1.64994 6.83695 1.75453 6.58454C1.85913 6.33213 2.05018 6.12521 2.29345 6.00084L4.41595 4.91667C4.63179 4.80667 4.80679 4.63167 4.91679 4.41584L6.00179 2.29251C6.12627 2.04957 6.33311 1.85883 6.58532 1.7544C6.83754 1.64997 7.11867 1.63867 7.37845 1.72251L9.64679 2.45667C9.87595 2.53167 10.1243 2.53167 10.3543 2.45667V2.45667Z" stroke="white" stroke-width="1.5" stroke-linecap="round" stroke-linejoin="round"/>
<path d="M7.5 12.5L12.5 7.5" stroke="white" stroke-width="1.5" stroke-linecap="round" stroke-linejoin="round"/>
<path d="M7.915 7.5C7.83266 7.50033 7.75227 7.52505 7.68397 7.57103C7.61567 7.61702 7.56252 7.68221 7.53124 7.75837C7.49996 7.83453 7.49195 7.91826 7.50821 7.99897C7.52448 8.07969 7.56429 8.15378 7.62263 8.21188C7.68097 8.26999 7.75521 8.30951 7.83599 8.32545C7.91677 8.34139 8.00046 8.33304 8.0765 8.30146C8.15254 8.26987 8.21752 8.21647 8.26323 8.14798C8.30894 8.0795 8.33333 7.99901 8.33333 7.91667C8.33333 7.86181 8.3225 7.80749 8.30146 7.75683C8.28041 7.70617 8.24957 7.66016 8.2107 7.62145C8.17184 7.58274 8.12571 7.55208 8.07496 7.53124C8.02422 7.5104 7.96986 7.49978 7.915 7.5Z" stroke="white" stroke-width="1.5" stroke-linecap="round" stroke-linejoin="round"/>
<path d="M12.0815 11.6667C11.9992 11.667 11.9188 11.6917 11.8505 11.7377C11.7822 11.7837 11.729 11.8489 11.6977 11.9251C11.6665 12.0012 11.6584 12.0849 11.6747 12.1657C11.691 12.2464 11.7308 12.3205 11.7891 12.3786C11.8475 12.4367 11.9217 12.4762 12.0025 12.4921C12.0833 12.5081 12.167 12.4997 12.243 12.4681C12.319 12.4366 12.384 12.3832 12.4297 12.3147C12.4754 12.2462 12.4998 12.1657 12.4998 12.0834C12.4998 12.0285 12.489 11.9742 12.468 11.9235C12.4469 11.8729 12.4161 11.8269 12.3772 11.7881C12.3383 11.7494 12.2922 11.7188 12.2415 11.6979C12.1907 11.6771 12.1364 11.6665 12.0815 11.6667Z" stroke="white" stroke-width="1.5" stroke-linecap="round" stroke-linejoin="round"/>
</g>
<defs>
<clipPath id="clip0_646_950">
<rect width="20" height="20" fill="white"/>
</clipPath>
</defs>
</svg>
