<svg width="20" height="20" viewBox="0 0 20 20" fill="none" xmlns="http://www.w3.org/2000/svg">
<path d="M10 11.25C10.6904 11.25 11.25 10.6904 11.25 10C11.25 9.30964 10.6904 8.75 10 8.75C9.30964 8.75 8.75 9.30964 8.75 10C8.75 10.6904 9.30964 11.25 10 11.25Z" stroke="white" stroke-width="1.5" stroke-linecap="round" stroke-linejoin="round"/>
<path d="M8.25795 5.83331H7.0835C6.75198 5.83331 6.43403 5.96501 6.19961 6.19943C5.96519 6.43385 5.8335 6.75179 5.8335 7.08331V12.9166C5.8335 13.2482 5.96519 13.5661 6.19961 13.8005C6.43403 14.035 6.75198 14.1666 7.0835 14.1666H12.9168C13.2484 14.1666 13.5663 14.035 13.8007 13.8005C14.0351 13.5661 14.1668 13.2482 14.1668 12.9166V7.08331C14.1668 6.75179 14.0351 6.43385 13.8007 6.19943C13.5663 5.96501 13.2484 5.83331 12.9168 5.83331H10.8335C10.6125 5.83331 10.4005 5.92111 10.2442 6.07739C10.088 6.23367 10.0002 6.44563 10.0002 6.66665V8.74998" stroke="white" stroke-width="1.5" stroke-linecap="round" stroke-linejoin="round"/>
<path d="M13.3333 2.5H6.66667C4.36548 2.5 2.5 4.36548 2.5 6.66667V13.3333C2.5 15.6345 4.36548 17.5 6.66667 17.5H13.3333C15.6345 17.5 17.5 15.6345 17.5 13.3333V6.66667C17.5 4.36548 15.6345 2.5 13.3333 2.5Z" stroke="white" stroke-width="1.5" stroke-linecap="round" stroke-linejoin="round"/>
</svg>
