<svg width="18" height="19" viewBox="0 0 18 19" fill="none" xmlns="http://www.w3.org/2000/svg">
<mask id="mask0_365_3185" style="mask-type:luminance" maskUnits="userSpaceOnUse" x="2" y="3" width="14" height="14">
<path fill-rule="evenodd" clip-rule="evenodd" d="M8.94799 16.2639C12.6105 16.2639 15.5796 13.2948 15.5796 9.63228C15.5796 5.96976 12.6105 3.0007 8.94799 3.0007C5.28547 3.0007 2.31641 5.96976 2.31641 9.63228C2.31641 13.2948 5.28547 16.2639 8.94799 16.2639Z" fill="white"/>
</mask>
<g mask="url(#mask0_365_3185)">
<path fill-rule="evenodd" clip-rule="evenodd" d="M6.37148 8.57392L8.94718 5.99832L11.5242 8.57528L13.023 7.07656L8.94718 3.00067L4.87276 7.0752L6.37148 8.57392ZM3.81427 8.13327L5.31297 9.63196L3.81412 11.1308L2.31543 9.63211L3.81427 8.13327ZM8.94722 13.2661L6.37152 10.6905L4.8706 12.1872L4.8727 12.1893L8.94722 16.2638L13.023 12.1879L13.0237 12.1871L11.5242 10.6892L8.94722 13.2661ZM15.5786 9.6329L14.0798 11.1317L12.5811 9.63298L14.0799 8.13421L15.5786 9.6329ZM10.4675 9.63153H10.4668L10.4682 9.63226L10.4675 9.6331L8.94664 11.1538L7.42718 9.63436L7.42509 9.63226L7.42718 9.63006L7.69357 9.36367L7.82263 9.23462H7.82273L8.94664 8.1106L10.4675 9.63153Z" fill="#F5BC00"/>
</g>
</svg>
