<svg width="28" height="28" viewBox="0 0 28 28" fill="none" xmlns="http://www.w3.org/2000/svg">
<path d="M26.5213 19.3238L24.8521 24.7509L21.5752 23.8892L26.5213 19.3238Z" fill="#E4761B" stroke="#E4761B" stroke-width="0.0523603"/>
<path d="M21.5752 23.8892L24.7358 19.725L26.5213 19.3238L21.5752 23.8892Z" fill="#E4761B" stroke="#E4761B" stroke-width="0.0523603"/>
<path d="M24.0654 15.2324L26.5214 19.3242L24.7359 19.7254L24.0654 15.2324ZM24.0654 15.2324L25.6457 14.1798L26.5214 19.3242L24.0654 15.2324Z" fill="#F6851B" stroke="#F6851B" stroke-width="0.0523603"/>
<path d="M22.0537 12.1404L26.5962 10.351L26.3704 11.3312L22.0537 12.1404ZM26.2268 12.5088L22.0537 12.1404L26.3704 11.3312L26.2268 12.5088Z" fill="#763D16" stroke="#763D16" stroke-width="0.0523603"/>
<path d="M26.2268 12.5088L25.6453 14.1797L22.0537 12.1404L26.2268 12.5088ZM27.1366 10.7655L26.3704 11.3312L26.5962 10.351L27.1366 10.7655ZM26.2268 12.5088L26.3704 11.3312L26.9793 11.818L26.2268 12.5088Z" fill="#763D16" stroke="#763D16" stroke-width="0.0523603"/>
<path d="M18.0527 22.5668L19.1884 22.9155L21.5759 23.8891L18.0527 22.5668Z" fill="#E2761B" stroke="#E2761B" stroke-width="0.0523603"/>
<path d="M25.6461 14.1802L26.2276 12.5093L26.727 12.8777L25.6461 14.1802ZM25.6461 14.1802L20.9326 12.6869L22.0546 12.1409L25.6461 14.1802Z" fill="#763D16" stroke="#763D16" stroke-width="0.0523603"/>
<path d="M23.1765 7.01624L22.0546 12.1408L20.9326 12.6868L23.1765 7.01624Z" fill="#763D16" stroke="#763D16" stroke-width="0.0523603"/>
<path d="M26.5962 10.3515L22.0537 12.1408L23.1757 7.01624L26.5962 10.3515Z" fill="#763D16" stroke="#763D16" stroke-width="0.0523603"/>
<path d="M23.1758 7.01587L27.9167 6.48959L26.5963 10.3511L23.1758 7.01587Z" fill="#763D16" stroke="#763D16" stroke-width="0.0523603"/>
<path d="M25.6461 14.1803L24.0658 15.2329L20.9326 12.687L25.6461 14.1803Z" fill="#F6851B" stroke="#F6851B" stroke-width="0.0523603"/>
<path d="M27.7114 2.79889L27.9167 6.48937L23.1758 7.01565L27.7114 2.79889Z" fill="#763D16" stroke="#763D16" stroke-width="0.0523603"/>
<path d="M27.7123 2.79889L18.2374 9.42334L18.1143 4.93029L27.7123 2.79889Z" fill="#E2761B" stroke="#E2761B" stroke-width="0.0523603"/>
<path d="M11.0674 4.3909L18.1137 4.93033L18.2369 9.42338L11.0674 4.3909Z" fill="#F6851B" stroke="#F6851B" stroke-width="0.0523603"/>
<path d="M20.9327 12.6868L18.2373 9.42393L23.1766 7.01624L20.9327 12.6868Z" fill="#763D16" stroke="#763D16" stroke-width="0.0523603"/>
<path d="M20.9326 12.687L24.0658 15.2329L19.667 15.6999L20.9326 12.687Z" fill="#E4761B" stroke="#E4761B" stroke-width="0.0523603"/>
<path d="M19.6671 15.6996L18.2373 9.4238L20.9327 12.6867L19.6671 15.6996Z" fill="#E4761B" stroke="#E4761B" stroke-width="0.0523603"/>
<path d="M23.1766 7.01564L18.2373 9.42334L27.7122 2.79889L23.1766 7.01564Z" fill="#763D16" stroke="#763D16" stroke-width="0.0523603"/>
<path d="M11.1295 23.7839L13.3666 26.0272L10.3223 23.3629L11.1295 23.7839Z" fill="#C0AD9E" stroke="#C0AD9E" stroke-width="0.0523603"/>
<path d="M21.5752 23.8893L22.6356 20.0146L24.7358 19.7252L21.5752 23.8893Z" fill="#CD6116" stroke="#CD6116" stroke-width="0.0523603"/>
<path d="M2.05762 12.9888L5.92968 9.07465L2.55702 12.5217L2.05762 12.9888Z" fill="#E2761B" stroke="#E2761B" stroke-width="0.0523603"/>
<path d="M24.7359 19.7252L22.6357 20.0146L24.0655 15.2321L24.7359 19.7252ZM18.2369 9.42338L14.4674 9.30497L11.0674 4.3909L18.2369 9.42338Z" fill="#F6851B" stroke="#F6851B" stroke-width="0.0523603"/>
<path d="M24.0656 15.2324L22.6358 20.0149L22.5195 17.6796L24.0656 15.2324Z" fill="#E4751F" stroke="#E4751F" stroke-width="0.0523603"/>
<path d="M19.667 15.6995L24.0658 15.2324L22.5197 17.6796L19.667 15.6995Z" fill="#CD6116" stroke="#CD6116" stroke-width="0.0523603"/>
<path d="M14.4678 9.30518L18.2372 9.42359L19.667 15.6994L14.4678 9.30518Z" fill="#F6851B" stroke="#F6851B" stroke-width="0.0523603"/>
<path d="M14.4676 9.30524L4.29489 0.253357L11.0676 4.39117L14.4676 9.30524ZM11.0607 25.1592L2.22204 27.7905L0.457031 21.3108L11.0607 25.1592Z" fill="#E4761B" stroke="#E4761B" stroke-width="0.0523603"/>
<path d="M3.37207 14.6074L6.71053 12.0879L9.50854 12.7128L3.37207 14.6074Z" fill="#763D16" stroke="#763D16" stroke-width="0.0523603"/>
<path d="M9.50797 12.7129L6.70996 12.088L8.20816 6.14111L9.50797 12.7129Z" fill="#763D16" stroke="#763D16" stroke-width="0.0523603"/>
<path d="M2.55762 12.522L6.71017 12.0879L3.37171 14.6074L2.55762 12.522Z" fill="#763D16" stroke="#763D16" stroke-width="0.0523603"/>
<path d="M22.5197 17.6796L20.7958 16.8442L19.667 15.6995L22.5197 17.6796Z" fill="#CD6116" stroke="#CD6116" stroke-width="0.0523603"/>
<path d="M2.55686 12.5218L2.2627 11.0285L6.70941 12.0877L2.55686 12.5218Z" fill="#763D16" stroke="#763D16" stroke-width="0.0523603"/>
<path d="M20.4404 18.7253L20.7962 16.8439L22.5201 17.6794L20.4404 18.7253Z" fill="#233447" stroke="#233447" stroke-width="0.0523603"/>
<path d="M22.6364 20.0148L20.4404 18.7255L22.5201 17.6795L22.6364 20.0148Z" fill="#F6851B" stroke="#F6851B" stroke-width="0.0523603"/>
<path d="M6.70968 12.088L2.26297 11.0289L1.90039 9.77239L6.70968 12.088ZM8.20788 6.14111L6.70968 12.088L1.90039 9.77239L8.20788 6.14111ZM8.20788 6.14111L14.4675 9.30533L9.50769 12.7129L8.20788 6.14111Z" fill="#763D16" stroke="#763D16" stroke-width="0.0523603"/>
<path d="M9.50781 12.7128L14.4676 9.30518L16.6773 15.7981L9.50781 12.7128ZM16.6773 15.7981L9.8225 15.6599L9.50781 12.7128L16.6773 15.7981Z" fill="#E4761B" stroke="#E4761B" stroke-width="0.0523603"/>
<path d="M3.37207 14.6074L9.50854 12.7128L9.82323 15.6599L3.37207 14.6074ZM19.6676 15.6994L16.678 15.7981L14.4683 9.30518L19.6676 15.6994Z" fill="#F6851B" stroke="#F6851B" stroke-width="0.0523603"/>
<path d="M20.7958 16.8442L20.44 18.7256L19.667 15.6995L20.7958 16.8442Z" fill="#CD6116" stroke="#CD6116" stroke-width="0.0523603"/>
<path d="M4.29492 0.253357L14.4676 9.30524L8.20803 6.14103L4.29492 0.253357Z" fill="#763D16" stroke="#763D16" stroke-width="0.0523603"/>
<path d="M0.458008 21.3109L9.03675 20.9688L11.0617 25.1592L0.458008 21.3109Z" fill="#E4761B" stroke="#E4761B" stroke-width="0.0523603"/>
<path d="M11.0601 25.1589L9.03516 20.9685L13.2493 20.7711L11.0601 25.1589Z" fill="#CD6116" stroke="#CD6116" stroke-width="0.0523603"/>
<path d="M20.4409 18.7254L22.6369 20.0148L23.8477 22.758L20.4409 18.7254ZM9.82348 15.6599L0.458008 21.3107L3.37232 14.6073L9.82348 15.6599ZM9.03675 20.9686L0.458008 21.3107L9.82348 15.6599L9.03675 20.9686ZM19.6678 15.6993L20.2288 17.6597L17.5197 17.811L19.6678 15.6993ZM17.5197 17.811L16.6783 15.798L19.6678 15.6993L17.5197 17.811Z" fill="#F6851B" stroke="#F6851B" stroke-width="0.0523603"/>
<path d="M13.367 26.0277L11.0615 25.1594L19.0793 26.4553L13.367 26.0277Z" fill="#C0AD9E" stroke="#C0AD9E" stroke-width="0.0523603"/>
<path d="M3.37111 14.6074L2.05762 12.9891L2.55702 12.522L3.37111 14.6074Z" fill="#763D16" stroke="#763D16" stroke-width="0.0523603"/>
<path d="M19.9892 25.4949L19.0793 26.4553L11.0615 25.1594L19.9892 25.4949Z" fill="#D7C1B3" stroke="#D7C1B3" stroke-width="0.0523603"/>
<path d="M20.4201 23.1394L11.0615 25.1589L13.2507 20.7711L20.4201 23.1394Z" fill="#E4761B" stroke="#E4761B" stroke-width="0.0523603"/>
<path d="M11.0615 25.1593L20.4201 23.1398L19.9892 25.4948L11.0615 25.1593Z" fill="#D7C1B3" stroke="#D7C1B3" stroke-width="0.0523603"/>
<path d="M1.89965 9.77199L1.5918 4.7132L8.20714 6.14071L1.89965 9.77199ZM2.55639 12.5218L1.64653 11.6337L2.26222 11.0285L2.55639 12.5218Z" fill="#763D16" stroke="#763D16" stroke-width="0.0523603"/>
<path d="M15.1445 17.1005L16.6769 15.798L16.458 18.982L15.1445 17.1005Z" fill="#CD6116" stroke="#CD6116" stroke-width="0.0523603"/>
<path d="M16.6767 15.798L15.1443 17.1005L12.9141 18.2123L16.6767 15.798Z" fill="#CD6116" stroke="#CD6116" stroke-width="0.0523603"/>
<path d="M23.8473 22.7581L23.43 22.462L20.4404 18.7255L23.8473 22.7581Z" fill="#F6851B" stroke="#F6851B" stroke-width="0.0523603"/>
<path d="M12.9144 18.2123L9.82227 15.6599L16.677 15.7981L12.9144 18.2123Z" fill="#CD6116" stroke="#CD6116" stroke-width="0.0523603"/>
<path d="M16.459 18.982L16.6779 15.798L17.5194 17.811L16.459 18.982Z" fill="#E4751F" stroke="#E4751F" stroke-width="0.0523603"/>
<path d="M1.3457 10.2721L1.89983 9.77216L2.26241 11.0286L1.3457 10.2721Z" fill="#763D16" stroke="#763D16" stroke-width="0.0523603"/>
<path d="M16.4578 18.982L12.9141 18.2124L15.1443 17.1006L16.4578 18.982Z" fill="#233447" stroke="#233447" stroke-width="0.0523603"/>
<path d="M8.20714 6.14103L1.5918 4.71351L4.29403 0.253357L8.20714 6.14103Z" fill="#763D16" stroke="#763D16" stroke-width="0.0523603"/>
<path d="M19.0785 26.4553L19.4548 27.4421L13.3662 26.0277L19.0785 26.4553Z" fill="#C0AD9E" stroke="#C0AD9E" stroke-width="0.0523603"/>
<path d="M13.2493 20.7712L12.9141 18.2122L16.4578 18.9819L13.2493 20.7712Z" fill="#F6851B" stroke="#F6851B" stroke-width="0.0523603"/>
<path d="M9.82227 15.6599L12.9144 18.2123L13.2497 20.7713L9.82227 15.6599Z" fill="#E4751F" stroke="#E4751F" stroke-width="0.0523603"/>
<path d="M17.5181 17.811L20.2272 17.6597L23.4288 22.462L17.5181 17.811ZM9.82188 15.6599L13.2493 20.7713L9.03516 20.9687L9.82188 15.6599Z" fill="#F6851B" stroke="#F6851B" stroke-width="0.0523603"/>
<path d="M17.5194 17.8108L20.8852 22.738L16.459 18.9817L17.5194 17.8108Z" fill="#E4751F" stroke="#E4751F" stroke-width="0.0523603"/>
<path d="M16.459 18.9821L20.8852 22.7384L20.42 23.1396L16.459 18.9821Z" fill="#F6851B" stroke="#F6851B" stroke-width="0.0523603"/>
<path d="M20.4185 23.1393L13.249 20.771L16.4575 18.9817L20.4185 23.1393ZM23.4286 22.4617L20.8837 22.738L17.5179 17.8108L23.4286 22.4617Z" fill="#F6851B" stroke="#F6851B" stroke-width="0.0523603"/>
<path d="M24.0995 24.7774L23.0049 26.8891L19.4544 27.4417L24.0995 24.7774ZM19.4544 27.4417L19.0781 26.4549L19.988 25.4945L19.4544 27.4417Z" fill="#C0AD9E" stroke="#C0AD9E" stroke-width="0.0523603"/>
<path d="M19.9887 25.4945L20.6591 25.2379L19.4551 27.4417L19.9887 25.4945ZM19.4551 27.4417L20.6591 25.2379L24.1002 24.7774L19.4551 27.4417Z" fill="#C0AD9E" stroke="#C0AD9E" stroke-width="0.0523603"/>
<path d="M23.429 22.4616L24.2705 22.955L21.7119 23.251L23.429 22.4616Z" fill="#161616" stroke="#161616" stroke-width="0.0523603"/>
<path d="M21.7125 23.251L20.8848 22.7379L23.4297 22.4616L21.7125 23.251ZM21.4184 23.6391L24.5311 23.2773L24.1001 24.7772L21.4184 23.6391Z" fill="#161616" stroke="#161616" stroke-width="0.0523603"/>
<path d="M24.0998 24.7778L20.6587 25.2383L21.4181 23.6397L24.0998 24.7778ZM20.6587 25.2383L19.9883 25.4948L20.4193 23.1397L20.6587 25.2383ZM20.4193 23.1397L20.8845 22.7385L21.7122 23.2516L20.4193 23.1397ZM24.2708 22.9556L24.5308 23.2779L21.4181 23.6397L24.2708 22.9556Z" fill="#161616" stroke="#161616" stroke-width="0.0523603"/>
<path d="M21.4177 23.6397L21.7119 23.2516L24.2705 22.9556L21.4177 23.6397ZM20.4189 23.1398L21.4177 23.6397L20.6584 25.2383L20.4189 23.1398Z" fill="#161616" stroke="#161616" stroke-width="0.0523603"/>
<path d="M21.7119 23.2516L21.4177 23.6397L20.4189 23.1398L21.7119 23.2516Z" fill="#161616" stroke="#161616" stroke-width="0.0523603"/>
</svg>
