<svg width="20" height="20" viewBox="0 0 20 20" fill="none" xmlns="http://www.w3.org/2000/svg">
<path d="M16.6667 5.83333H3.33333C3.11232 5.83333 2.90036 5.74554 2.74408 5.58926C2.5878 5.43298 2.5 5.22101 2.5 5V3.33333C2.5 3.11232 2.5878 2.90036 2.74408 2.74408C2.90036 2.5878 3.11232 2.5 3.33333 2.5H16.6667C16.8877 2.5 17.0996 2.5878 17.2559 2.74408C17.4122 2.90036 17.5 3.11232 17.5 3.33333V5C17.5 5.22101 17.4122 5.43298 17.2559 5.58926C17.0996 5.74554 16.8877 5.83333 16.6667 5.83333Z" stroke="white" stroke-width="1.5" stroke-linecap="round" stroke-linejoin="round"/>
<path d="M16.6667 11.6666H3.33333C3.11232 11.6666 2.90036 11.5788 2.74408 11.4226C2.5878 11.2663 2.5 11.0543 2.5 10.8333V9.16665C2.5 8.94563 2.5878 8.73367 2.74408 8.57739C2.90036 8.42111 3.11232 8.33331 3.33333 8.33331H16.6667C16.8877 8.33331 17.0996 8.42111 17.2559 8.57739C17.4122 8.73367 17.5 8.94563 17.5 9.16665V10.8333C17.5 11.0543 17.4122 11.2663 17.2559 11.4226C17.0996 11.5788 16.8877 11.6666 16.6667 11.6666Z" stroke="white" stroke-width="1.5" stroke-linecap="round" stroke-linejoin="round"/>
<path d="M16.6667 17.5H3.33333C3.11232 17.5 2.90036 17.4122 2.74408 17.2559C2.5878 17.0997 2.5 16.8877 2.5 16.6667V15C2.5 14.779 2.5878 14.567 2.74408 14.4108C2.90036 14.2545 3.11232 14.1667 3.33333 14.1667H16.6667C16.8877 14.1667 17.0996 14.2545 17.2559 14.4108C17.4122 14.567 17.5 14.779 17.5 15V16.6667C17.5 16.8877 17.4122 17.0997 17.2559 17.2559C17.0996 17.4122 16.8877 17.5 16.6667 17.5Z" stroke="white" stroke-width="1.5" stroke-linecap="round" stroke-linejoin="round"/>
</svg>
