<svg width="22" height="23" viewBox="0 0 22 23" fill="none" xmlns="http://www.w3.org/2000/svg">
<path d="M11 6.4035V9.456" stroke="white" stroke-width="1.5" stroke-miterlimit="10" stroke-linecap="round"/>
<path d="M11.018 2.3327C7.64466 2.3327 4.913 5.06437 4.913 8.4377V10.3627C4.913 10.986 4.65633 11.921 4.3355 12.4527L3.17133 14.396C2.45633 15.5969 2.95133 16.9352 4.27133 17.3752C8.653 18.8327 13.3922 18.8327 17.7738 17.3752C19.0113 16.9627 19.543 15.5144 18.8738 14.396L17.7097 12.4527C17.3888 11.921 17.1322 10.9769 17.1322 10.3627V8.4377C17.123 5.0827 14.373 2.3327 11.018 2.3327Z" stroke="white" stroke-width="1.5" stroke-miterlimit="10" stroke-linecap="round"/>
<path d="M14.0562 17.751C14.0562 19.4285 12.6812 20.8035 11.0037 20.8035C10.1695 20.8035 9.3995 20.4552 8.8495 19.9052C8.2995 19.3552 7.95117 18.5852 7.95117 17.751" stroke="white" stroke-width="1.5" stroke-miterlimit="10"/>
</svg>
