<svg width="31" height="32" viewBox="0 0 31 32" fill="none" xmlns="http://www.w3.org/2000/svg">
<path d="M30.6371 16.0045C30.6371 7.56611 23.7965 0.725464 15.3581 0.725464C6.91975 0.725464 0.0791016 7.56611 0.0791016 16.0045C0.0791016 24.4429 6.91975 31.2835 15.3581 31.2835C23.7965 31.2835 30.6371 24.4429 30.6371 16.0045Z" fill="url(#paint0_radial_575_1145)"/>
<path d="M10.1782 11.739C13.0391 8.938 17.6774 8.938 20.5382 11.739L20.8825 12.0761C21.0255 12.2161 21.0255 12.4432 20.8825 12.5832L19.7047 13.7364C19.6332 13.8064 19.5172 13.8064 19.4457 13.7364L18.9719 13.2725C16.9761 11.3185 13.7403 11.3185 11.7445 13.2725L11.2371 13.7693C11.1656 13.8393 11.0497 13.8393 10.9781 13.7693L9.80034 12.6161C9.6573 12.4761 9.6573 12.249 9.80034 12.109L10.1782 11.739ZM22.974 14.1238L24.0222 15.1502C24.1653 15.2902 24.1653 15.5173 24.0222 15.6573L19.2956 20.2851C19.1526 20.4252 18.9207 20.4252 18.7776 20.2851C18.7776 20.2851 18.7776 20.2851 18.7776 20.2851L15.423 17.0006C15.3872 16.9656 15.3292 16.9656 15.2935 17.0006C15.2935 17.0006 15.2935 17.0006 15.2935 17.0006L11.9389 20.2851C11.7959 20.4252 11.564 20.4252 11.4209 20.2851C11.4209 20.2851 11.4209 20.2851 11.4209 20.2851L6.69419 15.6573C6.55115 15.5172 6.55115 15.2901 6.69419 15.1501L7.74244 14.1238C7.88548 13.9837 8.11739 13.9837 8.26043 14.1238L11.6151 17.4083C11.6509 17.4433 11.7089 17.4433 11.7446 17.4083C11.7446 17.4083 11.7446 17.4083 11.7446 17.4083L15.0992 14.1238C15.2422 13.9837 15.4741 13.9837 15.6171 14.1238C15.6172 14.1238 15.6172 14.1238 15.6172 14.1238L18.9718 17.4083C19.0076 17.4433 19.0656 17.4433 19.1013 17.4083L22.456 14.1238C22.599 13.9838 22.8309 13.9838 22.974 14.1238Z" fill="white"/>
<defs>
<radialGradient id="paint0_radial_575_1145" cx="0" cy="0" r="1" gradientUnits="userSpaceOnUse" gradientTransform="translate(0.0791016 16.0045) scale(30.558)">
<stop stop-color="#5D9DF6"/>
<stop offset="1" stop-color="#006FFF"/>
</radialGradient>
</defs>
</svg>
